<?xml version="1.0" encoding="UTF-8"?>
<svg width="92px" height="92px" viewBox="0 0 92 92" version="1.1" xmlns="http://www.w3.org/2000/svg" xmlns:xlink="http://www.w3.org/1999/xlink">
    <!-- Generator: sketchtool 40.3 (33839) - http://www.bohemiancoding.com/sketch -->
    <title>D55C9AF1-214F-4DD5-93DA-A9973D2605B3</title>
    <desc>Created with sketchtool.</desc>
    <defs></defs>
    <g id="Page-1" stroke="none" stroke-width="1" fill="none" fill-rule="evenodd">
        <g id="01_signup-copy-3" transform="translate(-170.000000, -668.000000)">
            <g id="Group-4" transform="translate(170.000000, 668.000000)">
                <rect id="Rectangle-8-Copy-2" fill="#4B7BDF" x="0" y="0" width="92" height="92" rx="46"></rect>
                <path d="M57.9018864,26 L57.9018864,33.5522341 L54.0825737,33.5522341 C54.0825737,33.5522341 50.1683525,33.6027032 50.1683525,36.623534 C50.1683525,39.6443648 50.1683525,40.7162725 50.1683525,40.7162725 L58,40.7162725 L56.3500282,48.3657956 L50.1661256,48.3657956 L50.1661256,66 L42.1274652,66 L42.1274652,48.2665449 L36,48.2665449 L36,40.8160208 L42.2392364,40.8160208 L42.2392364,35.7000359 C42.2392364,35.7000359 42.2847037,31.8024236 44.654346,28.879039 C47.0239884,25.9556544 51.2443102,26.0100872 51.2443102,26.0100872" id="Path-878" fill="#FAFAFA"></path>
            </g>
        </g>
    </g>
</svg>