<?xml version="1.0" encoding="UTF-8"?>
<svg width="92px" height="92px" viewBox="0 0 92 92" version="1.1" xmlns="http://www.w3.org/2000/svg" xmlns:xlink="http://www.w3.org/1999/xlink">
    <!-- Generator: sketchtool 40.3 (33839) - http://www.bohemiancoding.com/sketch -->
    <title>F04F9B94-C433-48C0-A0C9-E878299A7F71</title>
    <desc>Created with sketchtool.</desc>
    <defs></defs>
    <g id="Page-1" stroke="none" stroke-width="1" fill="none" fill-rule="evenodd">
        <g id="01_signup-copy-3" transform="translate(-170.000000, -420.000000)">
            <g id="Group" transform="translate(170.000000, 420.000000)">
                <rect id="Rectangle-8" fill="#FFDE00" x="0" y="0" width="92" height="92" rx="46"></rect>
                <path d="M46,28 C34.9542308,28 26,34.8857241 26,43.3795487 C26,48.8709854 29.7434615,53.689473 35.3746154,56.4103403 C35.0682692,57.44077 33.4059615,63.0393009 33.3398077,63.4791185 C33.3398077,63.4791185 33.3,63.8095912 33.5194231,63.9356285 C33.7388462,64.0616658 33.9969231,63.9637618 33.9969231,63.9637618 C34.6261538,63.8780489 41.2936538,59.310323 42.4476923,58.5171509 C43.6005769,58.6763855 44.7876923,58.7590974 46,58.7590974 C57.0457692,58.7590974 66,51.8735609 66,43.3795487 C66,34.8857241 57.0457692,28 46,28" id="Fill-1" fill="#202326"></path>
            </g>
        </g>
    </g>
</svg>