<?xml version="1.0" encoding="UTF-8"?>
<svg width="46px" height="46px" viewBox="0 0 46 46" version="1.1" xmlns="http://www.w3.org/2000/svg" xmlns:xlink="http://www.w3.org/1999/xlink">
    <!-- Generator: Sketch 40.3 (33839) - http://www.bohemiancoding.com/sketch -->
    <title>Group 3</title>
    <desc>Created with Sketch.</desc>
    <defs></defs>
    <g id="Page-1" stroke="none" stroke-width="1" fill="none" fill-rule="evenodd">
        <g id="02-1_popup_alert-copy-34" transform="translate(-157.000000, -468.000000)">
            <g id="Group-8" transform="translate(157.000000, 468.000000)">
                <g id="Group-3">
                    <rect id="Rectangle-8-Copy" fill="#005FC8" x="0" y="0" width="46" height="46" rx="23"></rect>
                    <path d="M34.6973453,22.2629061 C35.2052165,21.4806683 35.5,20.5477092 35.5,19.5459415 C35.5,16.7901367 33.2575673,14.5459415 30.4913864,14.5459415 L23.5086136,14.5459415 C20.7399344,14.5459415 18.5,16.7845178 18.5,19.5459415 C18.5,22.3017464 20.7424327,24.5459415 23.5086136,24.5459415 L29.2608865,24.5459415 C28.7008196,23.9511533 28.3032981,23.263897 28.0708842,22.5459415 L23.4987856,22.5459415 C21.8426021,22.5459415 20.5,21.1994244 20.5,19.5459415 C20.5,17.8890873 21.8422643,16.5459415 23.4987856,16.5459415 L30.5012144,16.5459415 C32.1573979,16.5459415 33.5,17.8924587 33.5,19.5459415 C33.5,19.894552 33.4405776,20.2292745 33.3313084,20.5405201 C33.7910555,21.1555819 34.2485479,21.7648807 34.6973453,22.2629061 Z" id="Combined-Shape" fill="#FAFAFA" transform="translate(27.000000, 19.545942) rotate(-225.000000) translate(-27.000000, -19.545942) "></path>
                    <path d="M26.6973453,29.2629061 C27.2052165,28.4806683 27.5,27.5477092 27.5,26.5459415 C27.5,23.7901367 25.2575673,21.5459415 22.4913864,21.5459415 L15.5086136,21.5459415 C12.7399344,21.5459415 10.5,23.7845178 10.5,26.5459415 C10.5,29.3017464 12.7424327,31.5459415 15.5086136,31.5459415 L21.2608865,31.5459415 C20.7008196,30.9511533 20.3032981,30.263897 20.0708842,29.5459415 L15.4987856,29.5459415 C13.8426021,29.5459415 12.5,28.1994244 12.5,26.5459415 C12.5,24.8890873 13.8422643,23.5459415 15.4987856,23.5459415 L22.5012144,23.5459415 C24.1573979,23.5459415 25.5,24.8924587 25.5,26.5459415 C25.5,26.894552 25.4405776,27.2292745 25.3313084,27.5405201 C25.7910555,28.1555819 26.2485479,28.7648807 26.6973453,29.2629061 Z" id="Combined-Shape" fill="#FAFAFA" transform="translate(19.000000, 26.545942) rotate(-45.000000) translate(-19.000000, -26.545942) "></path>
                </g>
            </g>
        </g>
    </g>
</svg>