<?xml version="1.0" encoding="UTF-8"?>
<svg width="46px" height="46px" viewBox="0 0 46 46" version="1.1" xmlns="http://www.w3.org/2000/svg" xmlns:xlink="http://www.w3.org/1999/xlink">
    <!-- Generator: Sketch 40.3 (33839) - http://www.bohemiancoding.com/sketch -->
    <title>Group</title>
    <desc>Created with Sketch.</desc>
    <defs></defs>
    <g id="Page-1" stroke="none" stroke-width="1" fill="none" fill-rule="evenodd">
        <g id="02-1_popup_alert-copy-34" transform="translate(-64.000000, -468.000000)">
            <g id="Group-7" transform="translate(64.000000, 468.000000)">
                <g id="Group">
                    <rect id="Rectangle-8" fill="#FFDE00" x="0" y="0" width="46" height="46" rx="23"></rect>
                    <path d="M23,14 C17.4771154,14 13,17.442862 13,21.6897744 C13,24.4354927 14.8717308,26.8447365 17.6873077,28.2051701 C17.5341346,28.720385 16.7029808,31.5196504 16.6699038,31.7395592 C16.6699038,31.7395592 16.65,31.9047956 16.7597115,31.9678142 C16.8694231,32.0308329 16.9984615,31.9818809 16.9984615,31.9818809 C17.3130769,31.9390245 20.6468269,29.6551615 21.2238462,29.2585754 C21.8002885,29.3381927 22.3938462,29.3795487 23,29.3795487 C28.5228846,29.3795487 33,25.9367805 33,21.6897744 C33,17.442862 28.5228846,14 23,14" id="Fill-1" fill="#202326"></path>
                </g>
            </g>
        </g>
    </g>
</svg>