<?xml version="1.0" encoding="UTF-8"?>
<svg width="46px" height="46px" viewBox="0 0 46 46" version="1.1" xmlns="http://www.w3.org/2000/svg" xmlns:xlink="http://www.w3.org/1999/xlink">
    <!-- Generator: Sketch 40.3 (33839) - http://www.bohemiancoding.com/sketch -->
    <title>Group 6</title>
    <desc>Created with Sketch.</desc>
    <defs></defs>
    <g id="Page-1" stroke="none" stroke-width="1" fill="none" fill-rule="evenodd">
        <g id="02-1_popup_alert-copy-34" transform="translate(-249.000000, -468.000000)">
            <g id="Group-10" transform="translate(249.000000, 468.000000)">
                <g id="Group-6">
                    <rect id="Rectangle-8-Copy-3" fill="#00D2FF" x="0" y="0" width="46" height="46" rx="23"></rect>
                    <rect id="Rectangle" fill="#FAFAFA" x="22" y="12" width="2" height="16" rx="1"></rect>
                    <rect id="Rectangle" fill="#FAFAFA" transform="translate(21.000000, 13.000000) rotate(-315.000000) translate(-21.000000, -13.000000) " x="20" y="9" width="2" height="8" rx="1"></rect>
                    <rect id="Rectangle" fill="#FAFAFA" transform="translate(25.000000, 13.000000) rotate(-225.000000) translate(-25.000000, -13.000000) " x="24" y="9" width="2" height="8" rx="1"></rect>
                    <rect id="Rectangle-Copy" fill="#FAFAFA" x="15" y="18" width="2" height="16" rx="1"></rect>
                    <rect id="Rectangle-Copy-2" fill="#FAFAFA" x="29" y="18" width="2" height="16" rx="1"></rect>
                    <rect id="Rectangle-Copy-2" fill="#FAFAFA" transform="translate(23.000000, 33.000000) rotate(-270.000000) translate(-23.000000, -33.000000) " x="22" y="25" width="2" height="16" rx="1"></rect>
                    <rect id="Rectangle-Copy-3" fill="#FAFAFA" transform="translate(17.500000, 19.000000) rotate(-270.000000) translate(-17.500000, -19.000000) " x="16.5" y="16.5" width="2" height="5" rx="1"></rect>
                    <rect id="Rectangle-Copy-3" fill="#FAFAFA" transform="translate(28.500000, 19.000000) rotate(-270.000000) translate(-28.500000, -19.000000) " x="27.5" y="16.5" width="2" height="5" rx="1"></rect>
                </g>
            </g>
        </g>
    </g>
</svg>