<?xml version="1.0" encoding="utf-8"?>
<!-- Generated by IcoMoon.io -->
<!DOCTYPE svg PUBLIC "-//W3C//DTD SVG 1.1//EN" "http://www.w3.org/Graphics/SVG/1.1/DTD/svg11.dtd">
<svg version="1.1" xmlns="http://www.w3.org/2000/svg" xmlns:xlink="http://www.w3.org/1999/xlink" width="416" height="448" viewBox="0 0 416 448"><g id="icomoon-ignore">
</g>
<path d="M64 336q0-6.5-4.75-11.25t-11.25-4.75q-6.75 0-11.375 4.75t-4.625 11.25q0 6.75 4.625 11.375t11.375 4.625q6.5 0 11.25-4.625t4.75-11.375zM104 208v160q0 6.5-4.75 11.25t-11.25 4.75h-72q-6.5 0-11.25-4.75t-4.75-11.25v-160q0-6.5 4.75-11.25t11.25-4.75h72q6.5 0 11.25 4.75t4.75 11.25zM400 208q0 21.5-13.75 37.25 3.75 11 3.75 19 0.75 19-10.75 34.25 4.25 14 0 29.25-3.75 14.25-13.5 23.5 2.25 28-12.25 45.25-16 19-49.25 19.5h-32.25q-16.5 0-36-3.875t-30.375-7.25-30.125-9.875q-30.75-10.75-39.5-11-6.5-0.25-11.25-4.875t-4.75-11.125v-160.25q0-6.25 4.5-10.875t10.75-5.125q6-0.5 19-14.75t25.25-30.25q17-21.75 25.25-30 4.5-4.5 7.75-12t4.375-12.125 3.375-15.125q1.75-9.75 3.125-15.25t4.875-13 8.5-12.5q4.75-4.75 11.25-4.75 11.5 0 20.625 2.625t15 6.5 10 10.125 6 11.25 3 12.5 1.25 11.25 0.125 9.75q0 9.5-2.375 19t-4.75 15-6.875 14q-0.75 1.5-2.5 4.5t-2.75 5.5-2 6h69.25q19.5 0 33.75 14.25t14.25 33.75z"></path>
</svg>
